<?xml version="1.0" standalone="no"?>
<!DOCTYPE svg PUBLIC "-//W3C//DTD SVG 20010904//EN"
 "http://www.w3.org/TR/2001/REC-SVG-20010904/DTD/svg10.dtd">
<svg version="1.0" xmlns="http://www.w3.org/2000/svg"
 width="1000.000000pt" height="1000.000000pt" viewBox="0 0 1000.000000 1000.000000"
 preserveAspectRatio="xMidYMid meet">
<metadata>
Created by potrace 1.14, written by Peter Selinger 2001-2017
</metadata>
<g transform="translate(0.000000,1000.000000) scale(0.100000,-0.100000)"
fill="#000000" stroke="none">
<path d="M4629 9996 c-2 -2 -44 -7 -93 -10 -91 -7 -147 -13 -201 -21 -16 -3
-48 -7 -70 -10 -304 -41 -663 -130 -975 -242 -137 -49 -128 -46 -320 -129
-338 -146 -756 -391 -1000 -587 -8 -7 -51 -40 -95 -74 -44 -34 -96 -76 -117
-95 -20 -18 -60 -53 -90 -77 -66 -55 -377 -368 -437 -440 -25 -30 -50 -59 -56
-65 -9 -10 -70 -84 -102 -126 -6 -8 -31 -40 -55 -70 -310 -392 -609 -956 -771
-1455 -83 -255 -158 -557 -182 -735 -3 -25 -8 -52 -10 -60 -7 -25 -34 -246
-42 -343 -17 -195 -8 -859 12 -979 2 -13 6 -43 9 -68 10 -85 28 -201 51 -325
59 -320 186 -728 322 -1040 99 -226 327 -652 355 -663 4 -2 8 -8 8 -13 0 -14
176 -270 244 -355 23 -28 52 -66 66 -84 25 -34 59 -74 154 -184 77 -89 329
-343 431 -433 76 -67 128 -111 236 -198 105 -84 418 -305 433 -305 3 0 24 -13
48 -29 107 -72 411 -230 598 -311 490 -214 943 -330 1530 -394 212 -23 722
-24 910 -1 14 1 59 6 100 10 41 4 84 9 94 11 11 2 56 8 100 15 45 6 104 15
131 21 28 5 64 12 80 15 71 12 295 65 393 93 475 137 846 301 1307 582 159 97
469 330 641 483 88 78 323 310 399 395 318 353 600 774 801 1199 30 62 54 115
54 117 0 2 11 27 24 56 72 161 194 510 232 668 2 8 17 69 33 135 29 121 64
297 77 390 3 28 8 59 10 70 4 19 19 150 29 248 11 100 19 298 18 447 0 147
-11 422 -18 458 -1 9 -6 49 -10 87 -4 39 -9 81 -11 95 -2 14 -6 45 -10 70 -6
47 -7 58 -19 125 -123 724 -409 1418 -828 2015 -73 103 -165 226 -192 256 -5
7 -26 31 -44 54 -19 23 -40 48 -45 54 -6 6 -40 45 -75 86 -138 160 -478 483
-613 583 -20 15 -42 32 -50 39 -27 26 -225 169 -343 248 -183 122 -553 319
-770 410 -279 116 -621 226 -855 275 -134 28 -276 55 -320 60 -30 4 -64 9 -75
11 -11 2 -63 9 -115 14 -52 6 -108 13 -125 16 -33 7 -790 16 -796 10z"/>
</g>
</svg>
